<svg xmlns="http://www.w3.org/2000/svg" class="sc-659e94ee-2 jHsCAe" fill="#ffffff" viewBox="0 0 1024 1024"><path class="path1" d="M254.109 70.082q-26.218 0-44.872 18.655t-18.655 44.872v762.328q0 26.218 18.655 44.872t44.872 18.655h508.219q26.218 0 44.872-18.655t18.655-44.872V133.609q0-26.218-18.655-44.872t-44.872-18.655H254.109zm190.582 127.054v-63.527h127.055v63.527h127.055v63.527H317.637v-63.527h127.055zm254.11 698.801H317.637q-26.218 0-44.872-18.655T254.11 832.41V578.301q0-26.218 18.655-44.872t44.872-18.655h381.164q26.218 0 44.872 18.655t18.655 44.872V832.41q0 26.218-18.655 44.872t-44.872 18.655z"/></svg>