<svg xmlns="http://www.w3.org/2000/svg" class="sc-a69555ed-6 fmEwjX" viewBox="0 0 1024 1024"><path class="path1" d="M635.273 895.937V641.828q0-26.218-18.655-44.872t-44.872-18.655H444.691q-26.218 0-44.872 18.655t-18.655 44.872v254.109H190.582v-380.66l-63.527 45.377v335.283q0 26.218 18.655 44.872t44.872 18.655h635.273q26.218 0 44.872-18.655t18.655-44.872V560.654l-63.527-45.377v380.66H635.273zm-52.435-757.79q-20.672-14.621-47.645-19.915t-53.948 0-47.645 19.915L40.336 418.978q-13.109 9.58-15.882 25.713t6.806 29.495 25.713 16.134 29.747-6.806l392.76-280.831q11.092-7.563 28.739-7.563t28.739 7.563l392.76 280.831q10.588 7.563 23.193 7.563 20.672 0 32.268-16.638 9.58-13.613 6.806-29.747t-15.882-25.713L582.839 138.148z"/></svg>