<svg xmlns="http://www.w3.org/2000/svg" class="sc-659e94ee-2 jHsCAe" fill="#ffffff" viewBox="0 0 1024 1024"><path class="path1" d="M762.328 378.139q0-49.41-19.411-94.787t-51.931-78.149-77.392-52.183-94.283-19.411h-22.184q-28.234 0-55.46 6.302t-51.175 18.403-45.125 28.739-37.814 37.814-28.739 45.125-18.403 51.175-6.302 55.46v74.619q-26.722 3.529-45.125 23.949t-18.403 47.645v298.478q0 19.663 9.832 36.553t26.722 26.722 36.553 9.832h489.06q19.663 0 36.553-9.832t26.722-26.722 9.832-36.553V524.353q0-18.151-8.571-33.78t-23.193-25.461-31.764-12.353V378.14zM519.311 197.136q36.301 0 69.578 14.369t57.225 38.318 38.318 57.225 14.369 69.578v74.619H317.637v-74.619q0-36.301 14.369-69.578t38.318-57.225 57.225-38.318 69.578-14.369h22.184z"/></svg>